<?xml version="1.0" encoding="UTF-8"?>
<svg xmlns="http://www.w3.org/2000/svg" xmlns:xlink="http://www.w3.org/1999/xlink" width="50px" height="50px" viewBox="0 0 50 50" version="1.1">
<defs>
<clipPath id="clip1">
  <path d="M 8.34375 13.320312 L 41.671875 13.320312 L 41.671875 36.699219 L 8.34375 36.699219 Z M 8.34375 13.320312 "/>
</clipPath>
</defs>
<g id="surface1">
<rect x="0" y="0" width="50" height="50" style="fill:rgb(38.823529%,38.823529%,39.607843%);fill-opacity:1;stroke:none;"/>
<g clip-path="url(#clip1)" clip-rule="nonzero">
<path style=" stroke:none;fill-rule:nonzero;fill:rgb(67.45098%,70.980392%,46.27451%);fill-opacity:1;" d="M 19.214844 30.21875 C 19.347656 30.394531 19.429688 30.535156 19.457031 30.640625 C 19.488281 30.746094 19.523438 30.855469 19.558594 30.960938 C 19.597656 31.0625 19.632812 31.164062 19.660156 31.261719 C 19.691406 31.359375 19.707031 31.414062 19.707031 31.433594 C 19.707031 31.570312 19.683594 31.679688 19.636719 31.765625 C 19.582031 31.851562 19.511719 31.964844 19.414062 32.097656 C 18.644531 32.390625 17.882812 32.675781 17.128906 32.949219 C 16.378906 33.230469 15.609375 33.507812 14.820312 33.777344 C 14.609375 33.835938 14.414062 33.894531 14.242188 33.960938 C 14.066406 34.03125 13.875 34.082031 13.660156 34.121094 C 13.625 34.160156 13.5625 34.195312 13.476562 34.222656 C 13.390625 34.253906 13.289062 34.289062 13.167969 34.324219 C 13.054688 34.363281 12.945312 34.398438 12.839844 34.425781 C 12.730469 34.457031 12.660156 34.472656 12.625 34.472656 C 12.46875 34.511719 12.296875 34.523438 12.117188 34.511719 C 11.933594 34.503906 11.757812 34.511719 11.582031 34.53125 C 11.484375 34.546875 11.417969 34.59375 11.382812 34.671875 C 11.34375 34.753906 11.296875 34.832031 11.25 34.914062 C 11.199219 35.003906 11.125 35.082031 11.03125 35.152344 C 10.9375 35.21875 10.804688 35.253906 10.628906 35.253906 C 10.457031 35.253906 10.28125 35.242188 10.109375 35.222656 C 9.933594 35.203125 9.75 35.15625 9.558594 35.074219 C 9.519531 35.019531 9.503906 34.949219 9.515625 34.863281 C 9.523438 34.777344 9.507812 34.703125 9.46875 34.644531 C 9.296875 34.625 9.160156 34.636719 9.066406 34.683594 C 8.972656 34.734375 8.875 34.773438 8.777344 34.792969 C 8.71875 34.710938 8.671875 34.621094 8.644531 34.511719 C 8.617188 34.40625 8.566406 34.316406 8.484375 34.242188 C 8.464844 34.140625 8.457031 34.046875 8.457031 33.949219 C 8.457031 33.855469 8.457031 33.757812 8.457031 33.660156 C 8.457031 33.527344 8.460938 33.367188 8.472656 33.1875 C 8.480469 33 8.515625 32.859375 8.574219 32.765625 C 8.632812 31.664062 8.664062 30.566406 8.664062 29.46875 C 8.664062 28.371094 8.664062 27.273438 8.664062 26.171875 C 8.664062 26.054688 8.664062 25.910156 8.664062 25.726562 C 8.664062 25.542969 8.65625 25.355469 8.644531 25.164062 C 8.636719 24.972656 8.628906 24.792969 8.617188 24.625 C 8.609375 24.464844 8.59375 24.34375 8.574219 24.265625 C 8.59375 24.128906 8.605469 24 8.605469 23.875 C 8.605469 23.75 8.605469 23.621094 8.605469 23.484375 C 8.605469 23.367188 8.605469 23.265625 8.605469 23.167969 C 8.605469 23.070312 8.585938 22.972656 8.546875 22.878906 C 8.566406 22.800781 8.574219 22.695312 8.574219 22.558594 C 8.574219 22.464844 8.566406 22.367188 8.546875 22.269531 C 8.527344 22.175781 8.515625 22.078125 8.515625 21.980469 C 8.515625 21.824219 8.523438 21.675781 8.535156 21.535156 C 8.542969 21.390625 8.546875 21.238281 8.546875 21.085938 C 8.546875 20.582031 8.523438 20.089844 8.472656 19.597656 C 8.425781 19.105469 8.402344 18.609375 8.402344 18.105469 C 8.402344 17.453125 8.398438 16.796875 8.386719 16.140625 C 8.378906 15.484375 8.363281 14.832031 8.34375 14.175781 C 8.417969 13.980469 8.457031 13.816406 8.457031 13.683594 C 8.730469 13.550781 8.941406 13.503906 9.097656 13.542969 C 9.25 13.578125 9.402344 13.59375 9.558594 13.59375 C 9.652344 13.59375 9.738281 13.585938 9.820312 13.570312 C 9.894531 13.550781 9.96875 13.523438 10.050781 13.484375 C 10.144531 13.503906 10.226562 13.527344 10.292969 13.554688 C 10.363281 13.582031 10.445312 13.59375 10.539062 13.59375 C 10.828125 13.539062 10.988281 13.53125 11.019531 13.570312 C 11.046875 13.605469 11.089844 13.644531 11.144531 13.683594 C 11.222656 13.664062 11.285156 13.628906 11.335938 13.582031 C 11.382812 13.535156 11.445312 13.511719 11.523438 13.511719 C 11.636719 13.511719 11.726562 13.582031 11.785156 13.726562 C 11.84375 13.871094 11.910156 13.992188 11.984375 14.085938 C 11.984375 14.300781 12.023438 14.492188 12.105469 14.667969 C 12.140625 15.457031 12.152344 16.238281 12.144531 17.011719 C 12.136719 17.78125 12.160156 18.550781 12.214844 19.320312 C 12.234375 19.667969 12.257812 20.027344 12.289062 20.402344 C 12.320312 20.78125 12.335938 21.144531 12.335938 21.488281 C 12.335938 22.066406 12.339844 22.652344 12.347656 23.238281 C 12.359375 23.828125 12.363281 24.421875 12.363281 25.015625 C 12.363281 25.113281 12.367188 25.203125 12.375 25.277344 C 12.382812 25.355469 12.386719 25.441406 12.386719 25.539062 C 12.386719 25.769531 12.378906 25.992188 12.363281 26.199219 C 12.34375 26.414062 12.335938 26.625 12.335938 26.839844 L 12.335938 29.097656 C 12.335938 29.285156 12.328125 29.484375 12.316406 29.6875 C 12.308594 29.890625 12.316406 30.085938 12.335938 30.28125 L 12.445312 30.625 C 12.660156 30.546875 12.878906 30.46875 13.097656 30.378906 C 13.320312 30.292969 13.554688 30.230469 13.808594 30.191406 C 13.960938 30.152344 14.105469 30.113281 14.242188 30.078125 C 14.375 30.039062 14.519531 30 14.671875 29.960938 C 14.945312 29.804688 15.160156 29.699219 15.3125 29.640625 C 15.464844 29.585938 15.621094 29.527344 15.773438 29.46875 C 16.101562 29.355469 16.421875 29.234375 16.726562 29.109375 C 17.035156 28.980469 17.351562 28.859375 17.679688 28.746094 C 17.835938 28.785156 17.960938 28.765625 18.054688 28.6875 C 18.246094 28.726562 18.421875 28.746094 18.574219 28.746094 C 18.789062 28.960938 18.917969 29.125 18.964844 29.238281 C 19.011719 29.351562 19.085938 29.457031 19.183594 29.558594 C 19.144531 29.652344 19.148438 29.710938 19.195312 29.730469 C 19.25 29.75 19.28125 29.796875 19.296875 29.871094 C 19.375 29.910156 19.386719 29.964844 19.328125 30.03125 C 19.273438 30.097656 19.234375 30.160156 19.214844 30.21875 Z M 25.886719 15.507812 C 25.886719 15.679688 25.828125 15.8125 25.714844 15.898438 C 25.601562 15.984375 25.496094 16.097656 25.394531 16.230469 C 25.207031 16.402344 25.039062 16.582031 24.890625 16.761719 C 24.746094 16.945312 24.578125 17.121094 24.390625 17.296875 C 24.308594 17.375 24.203125 17.476562 24.070312 17.605469 C 23.933594 17.726562 23.796875 17.851562 23.648438 17.976562 C 23.503906 18.101562 23.359375 18.214844 23.21875 18.308594 C 23.070312 18.40625 22.949219 18.457031 22.855469 18.457031 C 22.703125 18.457031 22.503906 18.402344 22.265625 18.296875 C 22.023438 18.191406 21.816406 18.117188 21.640625 18.078125 C 21.507812 18.058594 21.386719 18.042969 21.28125 18.035156 C 21.175781 18.023438 21.070312 17.972656 20.972656 17.875 C 20.625 17.800781 20.40625 17.679688 20.308594 17.515625 C 20.214844 17.351562 20.109375 17.183594 19.988281 17.011719 C 19.988281 16.933594 20.019531 16.882812 20.078125 16.863281 C 20.136719 16.84375 20.1875 16.804688 20.222656 16.75 C 20.414062 16.5 20.578125 16.292969 20.710938 16.128906 C 20.851562 15.964844 21.007812 15.792969 21.179688 15.621094 C 21.507812 15.332031 21.820312 15.035156 22.117188 14.726562 C 22.414062 14.417969 22.730469 14.128906 23.058594 13.855469 C 23.210938 13.835938 23.328125 13.777344 23.40625 13.683594 C 23.480469 13.589844 23.597656 13.542969 23.75 13.542969 C 23.902344 13.542969 24.035156 13.589844 24.140625 13.683594 C 24.246094 13.777344 24.34375 13.890625 24.429688 14.015625 C 24.515625 14.140625 24.605469 14.269531 24.691406 14.394531 C 24.777344 14.515625 24.878906 14.609375 24.992188 14.667969 C 25.128906 14.761719 25.3125 14.886719 25.542969 15.046875 C 25.773438 15.199219 25.886719 15.355469 25.886719 15.507812 Z M 21.933594 20.882812 C 22.066406 20.957031 22.167969 21.058594 22.234375 21.1875 C 22.300781 21.3125 22.402344 21.40625 22.535156 21.464844 C 22.652344 21.519531 22.777344 21.546875 22.914062 21.546875 C 23.050781 21.546875 23.164062 21.566406 23.257812 21.605469 C 23.335938 21.644531 23.394531 21.691406 23.429688 21.75 C 23.46875 21.808594 23.507812 21.867188 23.546875 21.925781 C 23.664062 22.019531 23.839844 22.105469 24.082031 22.1875 C 24.320312 22.261719 24.480469 22.347656 24.5625 22.445312 C 24.695312 22.621094 24.796875 22.839844 24.863281 23.109375 C 24.929688 23.378906 24.984375 23.664062 25.023438 23.960938 C 25.0625 24.261719 25.09375 24.558594 25.113281 24.855469 C 25.132812 25.15625 25.160156 25.414062 25.195312 25.625 C 25.234375 26.066406 25.285156 26.507812 25.34375 26.941406 C 25.398438 27.375 25.425781 27.8125 25.425781 28.253906 C 25.425781 28.695312 25.40625 29.148438 25.371094 29.609375 C 25.332031 30.078125 25.3125 30.53125 25.3125 30.972656 C 25.3125 31.207031 25.308594 31.492188 25.296875 31.835938 C 25.289062 32.183594 25.207031 32.453125 25.050781 32.648438 C 25.03125 32.726562 25.023438 32.863281 25.023438 33.058594 L 25.023438 33.980469 C 25.023438 34.09375 25.03125 34.210938 25.050781 34.324219 C 25.070312 34.441406 25.082031 34.570312 25.082031 34.703125 C 25.082031 34.914062 25.023438 35.070312 24.90625 35.164062 C 24.847656 35.144531 24.789062 35.136719 24.722656 35.136719 C 24.652344 35.136719 24.589844 35.136719 24.53125 35.136719 C 24.316406 35.136719 24.164062 35.175781 24.070312 35.253906 C 23.855469 35.234375 23.652344 35.214844 23.460938 35.195312 C 23.265625 35.175781 23.066406 35.164062 22.855469 35.164062 C 22.527344 35.164062 22.171875 35.210938 21.785156 35.304688 C 21.710938 35.117188 21.675781 34.914062 21.683594 34.703125 C 21.691406 34.488281 21.648438 34.296875 21.554688 34.121094 C 21.535156 34.066406 21.519531 34.015625 21.511719 33.960938 C 21.5 33.914062 21.492188 33.863281 21.492188 33.808594 C 21.554688 33.574219 21.582031 33.414062 21.582031 33.328125 C 21.582031 33.242188 21.582031 33.152344 21.582031 33.058594 C 21.582031 32.785156 21.574219 32.507812 21.554688 32.226562 C 21.535156 31.953125 21.542969 31.675781 21.582031 31.40625 C 21.582031 31.308594 21.597656 31.222656 21.625 31.144531 C 21.65625 31.070312 21.671875 30.984375 21.671875 30.882812 C 21.671875 30.789062 21.652344 30.722656 21.613281 30.683594 C 21.574219 30.644531 21.554688 30.59375 21.554688 30.539062 C 21.554688 30.480469 21.558594 30.382812 21.566406 30.25 C 21.578125 30.117188 21.601562 30.027344 21.640625 29.988281 C 21.640625 29.835938 21.644531 29.6875 21.652344 29.539062 C 21.664062 29.398438 21.671875 29.257812 21.671875 29.121094 C 21.671875 28.8125 21.660156 28.503906 21.640625 28.195312 C 21.621094 27.886719 21.613281 27.589844 21.613281 27.300781 C 21.613281 27.167969 21.601562 27.082031 21.582031 27.042969 C 21.5625 27 21.542969 26.972656 21.523438 26.953125 C 21.503906 26.933594 21.476562 26.917969 21.441406 26.910156 C 21.402344 26.902344 21.371094 26.871094 21.351562 26.808594 C 21.425781 25.960938 21.398438 25.113281 21.261719 24.265625 C 21.128906 23.414062 21.0625 22.558594 21.0625 21.695312 C 21.0625 21.558594 21.082031 21.453125 21.121094 21.386719 C 21.160156 21.320312 21.207031 21.265625 21.261719 21.226562 C 21.324219 21.191406 21.375 21.148438 21.421875 21.101562 C 21.46875 21.050781 21.503906 20.976562 21.523438 20.882812 C 21.675781 20.921875 21.8125 20.921875 21.933594 20.882812 Z M 38.320312 13.59375 C 38.628906 13.558594 38.863281 13.585938 39.023438 13.671875 C 39.191406 13.757812 39.359375 13.808594 39.535156 13.828125 C 39.628906 13.847656 39.730469 13.851562 39.835938 13.84375 C 39.941406 13.832031 40.054688 13.828125 40.167969 13.828125 C 40.421875 13.828125 40.617188 13.855469 40.761719 13.914062 C 40.90625 13.972656 41.054688 14.101562 41.210938 14.292969 C 41.25 14.328125 41.304688 14.378906 41.371094 14.449219 C 41.4375 14.519531 41.46875 14.582031 41.46875 14.636719 C 41.46875 14.792969 41.433594 14.925781 41.359375 15.046875 C 41.277344 15.160156 41.238281 15.324219 41.238281 15.539062 C 41.238281 15.863281 41.277344 16.1875 41.359375 16.503906 C 41.433594 16.820312 41.480469 17.144531 41.5 17.472656 C 41.59375 18.664062 41.648438 19.867188 41.660156 21.074219 C 41.667969 22.277344 41.671875 23.46875 41.671875 24.644531 C 41.671875 24.796875 41.667969 24.933594 41.660156 25.058594 C 41.648438 25.183594 41.605469 25.296875 41.53125 25.394531 L 41.53125 25.769531 C 41.511719 26.269531 41.519531 26.773438 41.558594 27.285156 C 41.59375 27.796875 41.613281 28.304688 41.613281 28.804688 C 41.613281 29.246094 41.589844 29.691406 41.542969 30.132812 C 41.496094 30.578125 41.46875 31.03125 41.46875 31.492188 C 41.46875 31.914062 41.5 32.332031 41.558594 32.738281 C 41.613281 33.140625 41.640625 33.554688 41.640625 33.980469 C 41.546875 34.152344 41.492188 34.289062 41.46875 34.382812 C 41.449219 34.480469 41.414062 34.570312 41.359375 34.644531 C 41.300781 34.683594 41.234375 34.691406 41.167969 34.671875 C 41.101562 34.652344 41.046875 34.671875 41.007812 34.730469 C 40.914062 34.847656 40.847656 34.980469 40.808594 35.136719 C 40.769531 35.289062 40.671875 35.414062 40.515625 35.515625 C 40.476562 35.78125 40.378906 35.988281 40.214844 36.136719 C 40.050781 36.277344 39.929688 36.464844 39.855469 36.699219 C 39.621094 36.71875 39.460938 36.707031 39.375 36.667969 C 39.289062 36.628906 39.195312 36.589844 39.101562 36.550781 C 39.082031 36.222656 39.085938 35.988281 39.113281 35.84375 C 39.140625 35.699219 39.15625 35.550781 39.15625 35.394531 C 39.15625 35.203125 39.109375 35.058594 39.011719 34.964844 C 38.917969 34.863281 38.851562 34.738281 38.8125 34.585938 C 38.597656 34.449219 38.453125 34.359375 38.378906 34.3125 C 38.300781 34.265625 38.230469 34.203125 38.171875 34.121094 C 38.058594 33.96875 37.964844 33.804688 37.886719 33.632812 C 37.808594 33.457031 37.722656 33.292969 37.628906 33.140625 C 37.355469 32.699219 37.078125 32.246094 36.800781 31.785156 C 36.523438 31.320312 36.222656 30.867188 35.894531 30.421875 C 35.835938 30.328125 35.765625 30.242188 35.6875 30.160156 C 35.609375 30.085938 35.542969 30 35.484375 29.902344 C 35.15625 29.378906 34.847656 28.851562 34.5625 28.3125 C 34.273438 27.773438 33.933594 27.261719 33.546875 26.78125 C 33.394531 26.585938 33.28125 26.371094 33.207031 26.128906 C 33.125 25.890625 33.011719 25.679688 32.855469 25.507812 C 32.835938 25.605469 32.828125 25.714844 32.828125 25.828125 C 32.828125 25.941406 32.828125 26.046875 32.828125 26.148438 C 32.828125 26.800781 32.839844 27.453125 32.867188 28.09375 C 32.898438 28.742188 32.914062 29.394531 32.914062 30.050781 C 32.914062 30.183594 32.898438 30.304688 32.867188 30.410156 C 32.839844 30.515625 32.828125 30.636719 32.828125 30.769531 C 32.828125 30.964844 32.835938 31.148438 32.855469 31.320312 C 32.875 31.496094 32.886719 31.667969 32.886719 31.835938 C 32.886719 32.050781 32.878906 32.253906 32.867188 32.445312 C 32.859375 32.640625 32.847656 32.832031 32.828125 33.027344 C 32.785156 33.277344 32.738281 33.511719 32.683594 33.730469 C 32.625 33.953125 32.59375 34.179688 32.59375 34.414062 C 32.59375 34.546875 32.609375 34.671875 32.636719 34.792969 C 32.667969 34.90625 32.683594 35.011719 32.683594 35.105469 C 32.550781 35.320312 32.378906 35.425781 32.175781 35.425781 C 31.972656 35.425781 31.804688 35.503906 31.671875 35.65625 C 31.554688 35.636719 31.460938 35.644531 31.394531 35.683594 C 31.328125 35.726562 31.265625 35.746094 31.210938 35.746094 C 31.132812 35.746094 31.066406 35.734375 31.019531 35.714844 C 30.972656 35.695312 30.917969 35.683594 30.859375 35.683594 C 30.765625 35.683594 30.667969 35.734375 30.570312 35.828125 C 30.476562 35.925781 30.378906 35.976562 30.28125 35.976562 C 30.226562 35.976562 30.125 35.9375 29.976562 35.855469 C 29.835938 35.78125 29.683594 35.691406 29.515625 35.585938 C 29.355469 35.476562 29.203125 35.371094 29.066406 35.265625 C 28.933594 35.160156 28.867188 35.078125 28.867188 35.023438 C 28.84375 34.921875 28.835938 34.789062 28.835938 34.613281 C 28.835938 34.386719 28.851562 34.15625 28.882812 33.933594 C 28.910156 33.710938 28.945312 33.488281 28.984375 33.257812 C 29.039062 32.601562 29.066406 31.953125 29.066406 31.304688 C 29.066406 30.660156 29.066406 30.011719 29.066406 29.355469 C 29.066406 29.082031 29.074219 28.8125 29.085938 28.546875 C 29.09375 28.273438 29.097656 28.003906 29.097656 27.734375 C 29.097656 27.097656 29.074219 26.457031 29.023438 25.808594 C 28.976562 25.167969 28.953125 24.527344 28.953125 23.890625 C 28.953125 23.445312 28.972656 23.007812 29.011719 22.578125 C 29.050781 22.144531 29.066406 21.710938 29.066406 21.285156 C 29.066406 20.957031 29.058594 20.640625 29.035156 20.332031 C 29.019531 20.023438 29.011719 19.707031 29.011719 19.378906 C 28.992188 19.167969 28.992188 18.941406 29.011719 18.699219 C 29.027344 18.457031 29.035156 18.230469 29.035156 18.019531 C 29.035156 17.769531 29.003906 17.535156 28.9375 17.3125 C 28.871094 17.09375 28.835938 16.886719 28.835938 16.691406 C 28.835938 16.578125 28.859375 16.46875 28.90625 16.359375 C 28.957031 16.253906 28.984375 16.144531 28.984375 16.027344 C 28.984375 15.875 28.957031 15.71875 28.90625 15.5625 C 28.859375 15.40625 28.835938 15.253906 28.835938 15.097656 C 28.835938 14.945312 28.855469 14.800781 28.894531 14.667969 C 28.933594 14.53125 28.953125 14.390625 28.953125 14.234375 C 29.222656 14.101562 29.464844 14.035156 29.675781 14.035156 C 29.890625 14.035156 30.042969 14.109375 30.136719 14.265625 C 30.136719 14.613281 30.15625 14.875 30.199219 15.058594 C 30.238281 15.238281 30.265625 15.425781 30.28125 15.621094 C 30.28125 15.738281 30.277344 15.875 30.269531 16.027344 C 30.261719 16.183594 30.265625 16.332031 30.28125 16.472656 C 30.300781 16.617188 30.34375 16.738281 30.410156 16.832031 C 30.476562 16.933594 30.597656 16.980469 30.773438 16.980469 C 30.8125 17.078125 30.859375 17.164062 30.917969 17.242188 C 30.976562 17.316406 31.011719 17.414062 31.03125 17.527344 C 31.152344 17.453125 31.21875 17.347656 31.238281 17.210938 C 31.253906 17.078125 31.253906 16.953125 31.238281 16.832031 C 31.335938 16.875 31.417969 16.890625 31.492188 16.882812 C 31.574219 16.871094 31.652344 16.882812 31.730469 16.921875 C 31.765625 17.191406 31.8125 17.429688 31.871094 17.632812 C 31.933594 17.835938 31.953125 18.070312 31.933594 18.335938 C 32.316406 18.625 32.648438 19.035156 32.925781 19.570312 C 33.207031 20.097656 33.472656 20.574219 33.71875 20.996094 C 33.859375 21.210938 34.019531 21.410156 34.199219 21.59375 C 34.382812 21.777344 34.523438 21.992188 34.621094 22.238281 C 34.773438 22.339844 34.898438 22.464844 34.992188 22.617188 C 35.09375 22.773438 35.179688 22.925781 35.253906 23.082031 C 35.640625 23.753906 36.066406 24.410156 36.527344 25.046875 C 36.988281 25.679688 37.46875 26.308594 37.972656 26.921875 C 37.992188 26.789062 38 26.660156 38 26.53125 C 38 26.410156 38 26.28125 38 26.148438 L 37.972656 23.542969 C 37.972656 23.386719 37.96875 23.242188 37.960938 23.109375 C 37.949219 22.976562 37.933594 22.832031 37.914062 22.675781 C 37.875 22.175781 37.867188 21.683594 37.886719 21.203125 C 37.902344 20.722656 37.902344 20.230469 37.886719 19.730469 C 37.847656 19.207031 37.824219 18.675781 37.8125 18.136719 C 37.804688 17.597656 37.78125 17.058594 37.742188 16.519531 C 37.722656 16.191406 37.699219 15.863281 37.679688 15.539062 C 37.664062 15.210938 37.65625 14.882812 37.65625 14.554688 C 37.65625 14.148438 37.695312 13.78125 37.769531 13.453125 C 37.808594 13.414062 37.851562 13.378906 37.898438 13.351562 C 37.949219 13.324219 38.011719 13.3125 38.089844 13.3125 C 38.203125 13.3125 38.28125 13.40625 38.320312 13.59375 Z M 38.320312 13.59375 "/>
</g>
</g>
</svg>
