<svg xmlns="http://www.w3.org/2000/svg" version="1.1" xmlns:xlink="http://www.w3.org/1999/xlink" xmlns:svgjs="http://svgjs.dev/svgjs" width="1500" height="1500" viewBox="0 0 1500 1500"><rect width="1500" height="1500" fill="#000000"></rect><g transform="matrix(0.6666666666666666,0,0,0.6666666666666666,250.23917312617704,399.61727395411606)"><svg viewBox="0 0 352 247" data-background-color="#636365" preserveAspectRatio="xMidYMid meet" height="1052" width="1500" xmlns="http://www.w3.org/2000/svg" xmlns:xlink="http://www.w3.org/1999/xlink"><g id="tight-bounds" transform="matrix(1,0,0,1,-0.08418894041432168,-0.09999999999999432)"><svg viewBox="0 0 352.16837788082864 247.2" height="247.2" width="352.16837788082864"><g><svg viewBox="0 0 352.16837788082864 247.2" height="247.2" width="352.16837788082864"><g><svg viewBox="0 0 352.16837788082864 247.2" height="247.2" width="352.16837788082864"><g id="textblocktransform"><svg viewBox="0 0 352.16837788082864 247.2" height="247.2" width="352.16837788082864" id="textblock"><g><svg viewBox="0 0 352.16837788082864 247.2" height="247.2" width="352.16837788082864"><g transform="matrix(1,0,0,1,0,0)"><svg width="352.16837788082864" viewBox="2.98 -36.91 56.290000000000006 39.516666666666666" height="247.2" data-palette-color="#b4b4bc"><path d="M21.34-8.35L21.34-8.35Q21.68-7.91 21.75-7.64 21.83-7.37 21.92-7.1 22.02-6.84 22.09-6.59 22.17-6.35 22.17-6.3L22.17-6.3Q22.17-5.96 22.05-5.74 21.92-5.52 21.68-5.18L21.68-5.18Q19.73-4.44 17.82-3.74 15.92-3.03 13.92-2.34L13.92-2.34Q13.38-2.2 12.94-2.03 12.5-1.86 11.96-1.76L11.96-1.76Q11.87-1.66 11.65-1.59 11.43-1.51 11.13-1.42 10.84-1.32 10.57-1.25 10.3-1.17 10.21-1.17L10.21-1.17Q9.81-1.07 9.35-1.1 8.89-1.12 8.45-1.07L8.45-1.07Q8.2-1.03 8.11-0.83 8.01-0.63 7.89-0.42 7.76-0.2 7.52-0.02 7.28 0.15 6.84 0.15L6.84 0.15Q6.4 0.15 5.96 0.1 5.52 0.05 5.03-0.15L5.03-0.15Q4.93-0.29 4.96-0.51 4.98-0.73 4.88-0.88L4.88-0.88Q4.44-0.93 4.2-0.81 3.96-0.68 3.71-0.63L3.71-0.63Q3.56-0.83 3.49-1.1 3.42-1.37 3.22-1.56L3.22-1.56Q3.17-1.81 3.17-2.05 3.17-2.29 3.17-2.54L3.17-2.54Q3.17-2.88 3.2-3.34 3.22-3.81 3.37-4.05L3.37-4.05Q3.52-6.84 3.52-9.62 3.52-12.4 3.52-15.19L3.52-15.19Q3.52-15.48 3.52-15.94 3.52-16.41 3.49-16.89 3.47-17.38 3.44-17.8 3.42-18.21 3.37-18.41L3.37-18.41Q3.42-18.75 3.42-19.07 3.42-19.38 3.42-19.73L3.42-19.73Q3.42-20.02 3.42-20.26 3.42-20.51 3.32-20.75L3.32-20.75Q3.37-20.95 3.37-21.29L3.37-21.29Q3.37-21.53 3.32-21.78 3.27-22.02 3.27-22.27L3.27-22.27Q3.27-22.66 3.3-23.02 3.32-23.39 3.32-23.78L3.32-23.78Q3.32-25.05 3.2-26.29 3.08-27.54 3.08-28.81L3.08-28.81Q3.08-30.47 3.05-32.13 3.03-33.79 2.98-35.45L2.98-35.45Q3.17-35.94 3.17-36.28L3.17-36.28Q3.86-36.62 4.25-36.52 4.64-36.43 5.03-36.43L5.03-36.43Q5.27-36.43 5.47-36.47 5.66-36.52 5.86-36.62L5.86-36.62Q6.1-36.57 6.27-36.5 6.45-36.43 6.69-36.43L6.69-36.43Q7.42-36.57 7.5-36.47 7.57-36.38 7.71-36.28L7.71-36.28Q7.91-36.33 8.03-36.45 8.15-36.57 8.35-36.57L8.35-36.57Q8.64-36.57 8.79-36.21 8.94-35.84 9.13-35.6L9.13-35.6Q9.13-35.06 9.33-34.62L9.33-34.62Q9.42-32.62 9.4-30.66 9.38-28.71 9.52-26.76L9.52-26.76Q9.57-25.88 9.64-24.93 9.72-23.97 9.72-23.1L9.72-23.1Q9.72-21.63 9.74-20.14 9.77-18.65 9.77-17.14L9.77-17.14Q9.77-16.89 9.79-16.7 9.81-16.5 9.81-16.26L9.81-16.26Q9.81-15.67 9.77-15.14 9.72-14.6 9.72-14.06L9.72-14.06 9.72-10.25Q9.72-9.77 9.69-9.25 9.67-8.74 9.72-8.25L9.72-8.25 9.91-7.67Q10.45-7.86 11.01-8.08 11.57-8.3 12.21-8.4L12.21-8.4Q12.6-8.5 12.94-8.59 13.28-8.69 13.67-8.79L13.67-8.79Q14.36-9.18 14.75-9.33 15.14-9.47 15.53-9.62L15.53-9.62Q16.36-9.91 17.14-10.23 17.92-10.55 18.75-10.84L18.75-10.84Q19.14-10.74 19.38-10.94L19.38-10.94Q19.87-10.84 20.26-10.84L20.26-10.84Q20.8-10.3 20.92-10.01 21.04-9.72 21.29-9.47L21.29-9.47Q21.19-9.23 21.31-9.18 21.44-9.13 21.48-8.94L21.48-8.94Q21.68-8.84 21.53-8.67 21.39-8.5 21.34-8.35ZM32.61-33.2L32.61-33.2Q32.61-32.76 32.32-32.54 32.03-32.32 31.78-31.98L31.78-31.98Q31.3-31.54 30.93-31.08 30.56-30.62 30.08-30.18L30.08-30.18Q29.88-29.98 29.54-29.66 29.2-29.35 28.83-29.03 28.46-28.71 28.1-28.47 27.73-28.22 27.49-28.22L27.49-28.22Q27.1-28.22 26.49-28.49 25.88-28.76 25.44-28.86L25.44-28.86Q25.1-28.91 24.83-28.93 24.56-28.96 24.31-29.2L24.31-29.2Q23.43-29.39 23.19-29.81 22.95-30.22 22.65-30.66L22.65-30.66Q22.65-30.86 22.8-30.91 22.95-30.96 23.04-31.1L23.04-31.1Q23.53-31.74 23.87-32.15 24.22-32.57 24.66-33.01L24.66-33.01Q25.49-33.74 26.24-34.52 27-35.3 27.83-35.99L27.83-35.99Q28.22-36.04 28.42-36.28 28.61-36.52 29-36.52L29-36.52Q29.39-36.52 29.66-36.28 29.93-36.04 30.15-35.72 30.37-35.4 30.59-35.08 30.81-34.77 31.1-34.62L31.1-34.62Q31.44-34.38 32.03-33.98 32.61-33.59 32.61-33.2ZM25.93-24.12L25.93-24.12Q26.27-23.93 26.44-23.61 26.61-23.29 26.95-23.14L26.95-23.14Q27.24-23 27.59-23 27.93-23 28.17-22.9L28.17-22.9Q28.37-22.8 28.46-22.66 28.56-22.51 28.66-22.36L28.66-22.36Q28.95-22.12 29.56-21.92 30.17-21.73 30.37-21.48L30.37-21.48Q30.71-21.04 30.88-20.36 31.05-19.68 31.15-18.92 31.25-18.16 31.3-17.41 31.35-16.65 31.44-16.11L31.44-16.11Q31.54-14.99 31.69-13.89 31.83-12.79 31.83-11.67L31.83-11.67Q31.83-10.55 31.74-9.38 31.64-8.2 31.64-7.08L31.64-7.08Q31.64-6.49 31.61-5.62 31.59-4.74 31.2-4.25L31.2-4.25Q31.15-4.05 31.15-3.56L31.15-3.56 31.15-2Q31.15-1.71 31.2-1.42 31.25-1.12 31.25-0.78L31.25-0.78Q31.25-0.24 30.95 0L30.95 0Q30.81-0.05 30.64-0.05 30.47-0.05 30.32-0.05L30.32-0.05Q29.78-0.05 29.54 0.15L29.54 0.15Q29 0.1 28.51 0.05 28.02 0 27.49 0L27.49 0Q26.66 0 25.68 0.24L25.68 0.24Q25.49-0.24 25.51-0.78 25.53-1.32 25.29-1.76L25.29-1.76Q25.24-1.9 25.22-2.03 25.19-2.15 25.19-2.29L25.19-2.29Q25.34-2.88 25.34-3.1 25.34-3.32 25.34-3.56L25.34-3.56Q25.34-4.25 25.29-4.96 25.24-5.66 25.34-6.35L25.34-6.35Q25.34-6.59 25.41-6.79 25.49-6.98 25.49-7.23L25.49-7.23Q25.49-7.47 25.39-7.57 25.29-7.67 25.29-7.81L25.29-7.81Q25.29-7.96 25.31-8.3 25.34-8.64 25.44-8.74L25.44-8.74Q25.44-9.13 25.46-9.5 25.49-9.86 25.49-10.21L25.49-10.21Q25.49-10.99 25.44-11.77 25.39-12.55 25.39-13.28L25.39-13.28Q25.39-13.62 25.34-13.72 25.29-13.82 25.24-13.87 25.19-13.92 25.1-13.94 25-13.96 24.95-14.11L24.95-14.11Q25.14-16.26 24.8-18.41 24.46-20.56 24.46-22.75L24.46-22.75Q24.46-23.1 24.56-23.27 24.66-23.44 24.8-23.54 24.95-23.63 25.07-23.75 25.19-23.88 25.24-24.12L25.24-24.12Q25.63-24.02 25.93-24.12ZM53.61-36.43L53.61-36.43Q54.39-36.52 54.8-36.3 55.22-36.08 55.66-36.04L55.66-36.04Q55.9-35.99 56.17-36.01 56.44-36.04 56.73-36.04L56.73-36.04Q57.37-36.04 57.73-35.89 58.1-35.74 58.49-35.25L58.49-35.25Q58.59-35.16 58.76-34.99 58.93-34.81 58.93-34.67L58.93-34.67Q58.93-34.28 58.74-33.98 58.54-33.69 58.54-33.15L58.54-33.15Q58.54-32.32 58.74-31.52 58.93-30.71 58.98-29.88L58.98-29.88Q59.22-26.86 59.25-23.8 59.27-20.75 59.27-17.77L59.27-17.77Q59.27-17.38 59.25-17.07 59.22-16.75 59.03-16.5L59.03-16.5 59.03-15.87Q58.98-14.6 59.08-13.31 59.17-12.01 59.17-10.74L59.17-10.74Q59.17-9.62 59.05-8.5 58.93-7.37 58.93-6.2L58.93-6.2Q58.93-5.13 59.08-4.1 59.22-3.08 59.22-2L59.22-2Q58.98-1.56 58.93-1.32 58.88-1.07 58.74-0.88L58.74-0.88Q58.59-0.78 58.42-0.83 58.25-0.88 58.15-0.73L58.15-0.73Q57.91-0.44 57.81-0.05 57.71 0.34 57.32 0.59L57.32 0.59Q57.22 1.27 56.81 1.64 56.39 2 56.2 2.59L56.2 2.59Q55.61 2.64 55.39 2.54 55.17 2.44 54.93 2.34L54.93 2.34Q54.88 1.51 54.95 1.15 55.02 0.78 55.02 0.39L55.02 0.39Q55.02-0.1 54.78-0.34 54.54-0.59 54.44-0.98L54.44-0.98Q53.9-1.32 53.71-1.44 53.51-1.56 53.36-1.76L53.36-1.76Q53.07-2.15 52.88-2.59 52.68-3.03 52.44-3.42L52.44-3.42Q51.75-4.54 51.04-5.71 50.34-6.88 49.51-8.01L49.51-8.01Q49.36-8.25 49.16-8.45 48.97-8.64 48.82-8.89L48.82-8.89Q47.99-10.21 47.26-11.57 46.53-12.94 45.55-14.16L45.55-14.16Q45.16-14.65 44.97-15.26 44.77-15.87 44.38-16.31L44.38-16.31Q44.33-16.06 44.33-15.77 44.33-15.48 44.33-15.23L44.33-15.23Q44.33-13.57 44.4-11.94 44.48-10.3 44.48-8.64L44.48-8.64Q44.48-8.3 44.4-8.03 44.33-7.76 44.33-7.42L44.33-7.42Q44.33-6.93 44.38-6.49 44.43-6.05 44.43-5.62L44.43-5.62Q44.43-5.08 44.4-4.59 44.38-4.1 44.33-3.61L44.33-3.61Q44.23-2.98 44.09-2.42 43.94-1.86 43.94-1.27L43.94-1.27Q43.94-0.93 44.01-0.63 44.09-0.34 44.09-0.1L44.09-0.1Q43.75 0.44 43.23 0.44 42.72 0.44 42.38 0.83L42.38 0.83Q42.08 0.78 41.91 0.88 41.74 0.98 41.6 0.98L41.6 0.98Q41.4 0.98 41.28 0.93 41.16 0.88 41.01 0.88L41.01 0.88Q40.77 0.88 40.52 1.12 40.28 1.37 40.03 1.37L40.03 1.37Q39.89 1.37 39.52 1.17 39.16 0.98 38.74 0.71 38.33 0.44 37.98 0.17 37.64-0.1 37.64-0.24L37.64-0.24Q37.59-0.49 37.59-0.93L37.59-0.93Q37.59-1.51 37.67-2.08 37.74-2.64 37.84-3.22L37.84-3.22Q37.98-4.88 37.98-6.52 37.98-8.15 37.98-9.81L37.98-9.81Q37.98-10.5 38.01-11.18 38.03-11.87 38.03-12.55L38.03-12.55Q38.03-14.16 37.91-15.8 37.79-17.43 37.79-19.04L37.79-19.04Q37.79-20.17 37.89-21.26 37.98-22.36 37.98-23.44L37.98-23.44Q37.98-24.27 37.93-25.05 37.89-25.83 37.89-26.66L37.89-26.66Q37.84-27.2 37.89-27.81 37.93-28.42 37.93-28.96L37.93-28.96Q37.93-29.59 37.76-30.15 37.59-30.71 37.59-31.2L37.59-31.2Q37.59-31.49 37.71-31.76 37.84-32.03 37.84-32.32L37.84-32.32Q37.84-32.71 37.71-33.11 37.59-33.5 37.59-33.89L37.59-33.89Q37.59-34.28 37.69-34.62 37.79-34.96 37.79-35.35L37.79-35.35Q38.47-35.69 39.01-35.69L39.01-35.69Q39.55-35.69 39.79-35.3L39.79-35.3Q39.79-34.42 39.89-33.96 39.99-33.5 40.03-33.01L40.03-33.01Q40.03-32.71 40.01-32.32 39.99-31.93 40.03-31.57 40.08-31.2 40.25-30.96 40.42-30.71 40.86-30.71L40.86-30.71Q40.96-30.47 41.11-30.27 41.25-30.08 41.3-29.79L41.3-29.79Q41.6-29.98 41.65-30.32 41.69-30.66 41.65-30.96L41.65-30.96Q41.89-30.86 42.08-30.88 42.28-30.91 42.48-30.81L42.48-30.81Q42.57-30.13 42.72-29.61 42.87-29.1 42.82-28.42L42.82-28.42Q43.79-27.69 44.5-26.34 45.21-25 45.84-23.93L45.84-23.93Q46.19-23.39 46.65-22.92 47.11-22.46 47.36-21.83L47.36-21.83Q47.75-21.58 47.99-21.19 48.24-20.8 48.43-20.41L48.43-20.41Q49.41-18.7 50.58-17.09 51.75-15.48 53.02-13.92L53.02-13.92Q53.07-14.26 53.07-14.58 53.07-14.89 53.07-15.23L53.07-15.23 53.02-19.63Q53.02-20.02 53-20.36 52.97-20.7 52.92-21.09L52.92-21.09Q52.83-22.36 52.88-23.58 52.92-24.8 52.88-26.07L52.88-26.07Q52.78-27.39 52.75-28.76 52.73-30.13 52.63-31.49L52.63-31.49Q52.58-32.32 52.53-33.15 52.49-33.98 52.49-34.81L52.49-34.81Q52.49-35.84 52.68-36.67L52.68-36.67Q52.78-36.77 52.9-36.84 53.02-36.91 53.22-36.91L53.22-36.91Q53.51-36.91 53.61-36.43Z" opacity="1" transform="matrix(1,0,0,1,0,0)" fill="#ffffff" class="wordmark-text-0" data-fill-palette-color="primary" id="text-0"></path></svg></g></svg></g></svg></g></svg></g><g></g></svg></g><defs></defs></svg><rect width="352.16837788082864" height="247.2" fill="none" stroke="none" visibility="hidden"></rect></g></svg></g></svg>